<?xml version="1.0" encoding="UTF-8" standalone="no"?><svg xmlns="http://www.w3.org/2000/svg" xmlns:xlink="http://www.w3.org/1999/xlink" contentScriptType="application/ecmascript" contentStyleType="text/css" height="301px" preserveAspectRatio="none" style="width:686px;height:301px;" version="1.1" viewBox="0 0 686 301" width="686px" zoomAndPan="magnify"><defs><filter height="300%" id="fjlml6y3kd9xh" width="300%" x="-1" y="-1"><feGaussianBlur result="blurOut" stdDeviation="2.0"/><feColorMatrix in="blurOut" result="blurOut2" type="matrix" values="0 0 0 0 0 0 0 0 0 0 0 0 0 0 0 0 0 0 .4 0"/><feOffset dx="4.0" dy="4.0" in="blurOut2" result="blurOut3"/><feBlend in="SourceGraphic" in2="blurOut3" mode="normal"/></filter></defs><g><line style="stroke:#A80036;stroke-width:1.0;stroke-dasharray:5.0,5.0;" x1="29" x2="29" y1="41.6094" y2="256.7188"/><line style="stroke:#A80036;stroke-width:1.0;stroke-dasharray:5.0,5.0;" x1="220.5" x2="220.5" y1="41.6094" y2="256.7188"/><line style="stroke:#A80036;stroke-width:1.0;stroke-dasharray:5.0,5.0;" x1="528" x2="528" y1="41.6094" y2="256.7188"/><line style="stroke:#A80036;stroke-width:1.0;stroke-dasharray:5.0,5.0;" x1="636" x2="636" y1="41.6094" y2="256.7188"/><rect fill="#FEFECE" filter="url(#fjlml6y3kd9xh)" height="31.6094" style="stroke:#A80036;stroke-width:1.5;" width="44" x="5" y="5"/><text fill="#000000" font-family="sans-serif" font-size="14" lengthAdjust="spacing" textLength="30" x="12" y="26.5332">Alice</text><rect fill="#FEFECE" filter="url(#fjlml6y3kd9xh)" height="31.6094" style="stroke:#A80036;stroke-width:1.5;" width="44" x="5" y="255.7188"/><text fill="#000000" font-family="sans-serif" font-size="14" lengthAdjust="spacing" textLength="30" x="12" y="277.252">Alice</text><rect fill="#FEFECE" filter="url(#fjlml6y3kd9xh)" height="31.6094" style="stroke:#A80036;stroke-width:1.5;" width="77" x="180.5" y="5"/><text fill="#000000" font-family="sans-serif" font-size="14" lengthAdjust="spacing" textLength="63" x="187.5" y="26.5332">CoffeePot</text><rect fill="#FEFECE" filter="url(#fjlml6y3kd9xh)" height="31.6094" style="stroke:#A80036;stroke-width:1.5;" width="77" x="180.5" y="255.7188"/><text fill="#000000" font-family="sans-serif" font-size="14" lengthAdjust="spacing" textLength="63" x="187.5" y="277.252">CoffeePot</text><rect fill="#FEFECE" filter="url(#fjlml6y3kd9xh)" height="31.6094" style="stroke:#A80036;stroke-width:1.5;" width="114" x="469" y="5"/><text fill="#000000" font-family="sans-serif" font-size="14" lengthAdjust="spacing" textLength="100" x="476" y="26.5332">AuditRepository</text><rect fill="#FEFECE" filter="url(#fjlml6y3kd9xh)" height="31.6094" style="stroke:#A80036;stroke-width:1.5;" width="114" x="469" y="255.7188"/><text fill="#000000" font-family="sans-serif" font-size="14" lengthAdjust="spacing" textLength="100" x="476" y="277.252">AuditRepository</text><rect fill="#FEFECE" filter="url(#fjlml6y3kd9xh)" height="31.6094" style="stroke:#A80036;stroke-width:1.5;" width="75" x="597" y="5"/><text fill="#000000" font-family="sans-serif" font-size="14" lengthAdjust="spacing" textLength="61" x="604" y="26.5332">TeaKettle</text><rect fill="#FEFECE" filter="url(#fjlml6y3kd9xh)" height="31.6094" style="stroke:#A80036;stroke-width:1.5;" width="75" x="597" y="255.7188"/><text fill="#000000" font-family="sans-serif" font-size="14" lengthAdjust="spacing" textLength="61" x="604" y="277.252">TeaKettle</text><polygon fill="#A80036" points="209,69.9609,219,73.9609,209,77.9609,213,73.9609" style="stroke:#A80036;stroke-width:1.0;"/><line style="stroke:#A80036;stroke-width:1.0;" x1="29" x2="215" y1="73.9609" y2="73.9609"/><text fill="#000000" font-family="sans-serif" font-size="13" lengthAdjust="spacing" textLength="113" x="36" y="69.1045">Make me Espresso</text><line style="stroke:#A80036;stroke-width:1.0;" x1="221" x2="263" y1="104.3125" y2="104.3125"/><line style="stroke:#A80036;stroke-width:1.0;" x1="263" x2="263" y1="104.3125" y2="117.3125"/><line style="stroke:#A80036;stroke-width:1.0;" x1="222" x2="263" y1="117.3125" y2="117.3125"/><polygon fill="#A80036" points="232,113.3125,222,117.3125,232,121.3125,228,117.3125" style="stroke:#A80036;stroke-width:1.0;"/><text fill="#000000" font-family="sans-serif" font-size="13" lengthAdjust="spacing" textLength="123" x="228" y="99.4561">making the Espresso</text><polygon fill="#A80036" points="516,143.6641,526,147.6641,516,151.6641,520,147.6641" style="stroke:#A80036;stroke-width:1.0;"/><line style="stroke:#A80036;stroke-width:1.0;" x1="221" x2="522" y1="147.6641" y2="147.6641"/><text fill="#000000" font-family="sans-serif" font-size="13" lengthAdjust="spacing" textLength="283" x="228" y="142.8076">Record successful Espresso brew audit log entry</text><polygon fill="#A80036" points="40,174.0156,30,178.0156,40,182.0156,36,178.0156" style="stroke:#A80036;stroke-width:1.0;"/><line style="stroke:#A80036;stroke-width:1.0;stroke-dasharray:2.0,2.0;" x1="34" x2="220" y1="178.0156" y2="178.0156"/><text fill="#000000" font-family="sans-serif" font-size="13" lengthAdjust="spacing" textLength="168" x="46" y="173.1592">Success - Espresso is made</text><polygon fill="#A80036" points="624.5,204.3672,634.5,208.3672,624.5,212.3672,628.5,208.3672" style="stroke:#A80036;stroke-width:1.0;"/><line style="stroke:#A80036;stroke-width:1.0;" x1="29" x2="630.5" y1="208.3672" y2="208.3672"/><text fill="#000000" font-family="sans-serif" font-size="13" lengthAdjust="spacing" textLength="94" x="36" y="203.5107">Make me Coffee</text><polygon fill="#A80036" points="40,234.7188,30,238.7188,40,242.7188,36,238.7188" style="stroke:#A80036;stroke-width:1.0;"/><line style="stroke:#A80036;stroke-width:1.0;stroke-dasharray:2.0,2.0;" x1="34" x2="635.5" y1="238.7188" y2="238.7188"/><text fill="#000000" font-family="sans-serif" font-size="13" lengthAdjust="spacing" textLength="153" x="46" y="233.8623">Failure - "418 I'm a teapot"</text></g></svg>